<?xml version="1.0" encoding="UTF-8" standalone="no"?>
<!-- Created with Inkscape (http://www.inkscape.org/) -->

<svg
   xmlns:dc="http://purl.org/dc/elements/1.1/"
   xmlns:cc="http://creativecommons.org/ns#"
   xmlns:rdf="http://www.w3.org/1999/02/22-rdf-syntax-ns#"
   xmlns:svg="http://www.w3.org/2000/svg"
   xmlns="http://www.w3.org/2000/svg"
   xmlns:xlink="http://www.w3.org/1999/xlink"
   xmlns:sodipodi="http://sodipodi.sourceforge.net/DTD/sodipodi-0.dtd"
   xmlns:inkscape="http://www.inkscape.org/namespaces/inkscape"
   width="96"
   height="96"
   id="svg2"
   sodipodi:version="0.32"
   inkscape:version="0.92+devel unknown"
   version="1.0"
   sodipodi:docname="sjg.svg"
   inkscape:output_extension="org.inkscape.output.svg.inkscape"
   style="display:inline">
  <sodipodi:namedview
     id="base"
     pagecolor="#ffffff"
     bordercolor="#e7e7e7"
     borderopacity="1"
     inkscape:pageopacity="0.0"
     inkscape:pageshadow="2"
     inkscape:zoom="3.4492188"
     inkscape:cx="8.3339131"
     inkscape:cy="23.666674"
     inkscape:document-units="px"
     inkscape:current-layer="layer1"
     showgrid="true"
     inkscape:showpageshadow="false"
     showguides="false"
     inkscape:guide-bbox="true"
     inkscape:window-width="1920"
     inkscape:window-height="1055"
     inkscape:window-x="0"
     inkscape:window-y="25"
     inkscape:window-maximized="0"
     inkscape:snap-global="true"
     inkscape:document-rotation="0"
     fit-margin-top="5"
     fit-margin-left="5"
     fit-margin-right="5"
     fit-margin-bottom="5">
    <sodipodi:guide
       inkscape:locked="false"
       id="guide2383"
       position="5,135.13335"
       orientation="1,0" />
    <sodipodi:guide
       inkscape:locked="false"
       id="guide2385"
       position="33.030022,152.20001"
       orientation="0,1" />
    <sodipodi:guide
       inkscape:locked="false"
       id="guide2387"
       position="141.53333,73.354267"
       orientation="1,0" />
    <sodipodi:guide
       inkscape:locked="false"
       id="guide2389"
       position="88.36671,15.666673"
       orientation="0,1" />
    <sodipodi:guide
       inkscape:locked="false"
       id="guide2391"
       position="69.921148,84.023759"
       orientation="0,1" />
    <inkscape:grid
       snapvisiblegridlinesonly="true"
       empspacing="8"
       enabled="true"
       visible="true"
       id="grid3672"
       type="xygrid"
       originx="5"
       originy="15.666673"
       spacingx="1.0666667"
       spacingy="1.0666667" />
  </sodipodi:namedview>
  <defs
     id="defs4">
    <linearGradient
       id="linearGradient3295">
      <stop
         id="stop3297"
         offset="0"
         style="stop-color:#559829;stop-opacity:1;" />
      <stop
         id="stop3299"
         offset="1"
         style="stop-color:#86c837;stop-opacity:1;" />
    </linearGradient>
    <linearGradient
       id="linearGradient3287">
      <stop
         id="stop3289"
         offset="0"
         style="stop-color:#cd0000;stop-opacity:1;" />
      <stop
         id="stop3291"
         offset="1"
         style="stop-color:#e55300;stop-opacity:1;" />
    </linearGradient>
    <linearGradient
       id="linearGradient3279">
      <stop
         id="stop3281"
         offset="0"
         style="stop-color:#f08e00;stop-opacity:1;" />
      <stop
         id="stop3283"
         offset="1"
         style="stop-color:#ffd200;stop-opacity:1;" />
    </linearGradient>
    <linearGradient
       id="linearGradient3271">
      <stop
         id="stop3273"
         offset="0"
         style="stop-color:#395d93;stop-opacity:1;" />
      <stop
         id="stop3275"
         offset="1"
         style="stop-color:#6e92c7;stop-opacity:1;" />
    </linearGradient>
    <linearGradient
       id="linearGradient3327"
       inkscape:collect="always">
      <stop
         id="stop3330"
         offset="0"
         style="stop-color:#000000;stop-opacity:1;" />
      <stop
         id="stop3333"
         offset="1"
         style="stop-color:#000000;stop-opacity:0;" />
    </linearGradient>
    <linearGradient
       gradientUnits="userSpaceOnUse"
       y2="-9.817296"
       x2="11.375"
       y1="22"
       x1="11.375"
       id="linearGradient3335"
       xlink:href="#linearGradient3327"
       inkscape:collect="always" />
    <inkscape:perspective
       id="perspective102"
       inkscape:persp3d-origin="11 : 7.3333333 : 1"
       inkscape:vp_z="22 : 11 : 1"
       inkscape:vp_y="0 : 1000 : 0"
       inkscape:vp_x="0 : 11 : 1"
       sodipodi:type="inkscape:persp3d" />
    <linearGradient
       id="linearGradient4081">
      <stop
         id="stop4083"
         offset="0"
         style="stop-color:#aaaaaa;stop-opacity:1;" />
      <stop
         id="stop4085"
         offset="1"
         style="stop-color:#f0f0f0;stop-opacity:1;" />
    </linearGradient>
    <linearGradient
       id="linearGradient4057">
      <stop
         id="stop4059"
         offset="0"
         style="stop-color:#816647;stop-opacity:1;" />
      <stop
         id="stop4061"
         offset="1"
         style="stop-color:#a6845d;stop-opacity:1;" />
    </linearGradient>
    <linearGradient
       id="linearGradient3929">
      <stop
         id="stop3931"
         offset="0"
         style="stop-color:#000000;stop-opacity:1;" />
      <stop
         id="stop3933"
         offset="1"
         style="stop-color:#000000;stop-opacity:0;" />
    </linearGradient>
    <linearGradient
       gradientUnits="userSpaceOnUse"
       y2="-4.1786065"
       x2="9.494998"
       y1="15.516565"
       x1="9.494998"
       id="linearGradient4051"
       xlink:href="#linearGradient3929"
       inkscape:collect="always" />
    <linearGradient
       gradientUnits="userSpaceOnUse"
       y2="0.97239029"
       x2="9.17138"
       y1="21.000002"
       x1="9.17138"
       id="linearGradient4063"
       xlink:href="#linearGradient4057"
       inkscape:collect="always" />
    <linearGradient
       gradientUnits="userSpaceOnUse"
       y2="36.995476"
       x2="6.101758"
       y1="154.58195"
       x1="6.101758"
       id="linearGradient4089"
       xlink:href="#linearGradient4081"
       inkscape:collect="always" />
    <linearGradient
       y2="36.995476"
       x2="6.101758"
       y1="154.58195"
       x1="6.101758"
       gradientUnits="userSpaceOnUse"
       id="linearGradient4103"
       xlink:href="#linearGradient4081"
       inkscape:collect="always" />
    <linearGradient
       y2="36.995476"
       x2="6.101758"
       y1="154.58195"
       x1="6.101758"
       gradientUnits="userSpaceOnUse"
       id="linearGradient4105"
       xlink:href="#linearGradient4081"
       inkscape:collect="always" />
    <linearGradient
       y2="36.995476"
       x2="6.101758"
       y1="154.58195"
       x1="6.101758"
       gradientUnits="userSpaceOnUse"
       id="linearGradient4107"
       xlink:href="#linearGradient4081"
       inkscape:collect="always" />
    <linearGradient
       y2="36.995476"
       x2="6.101758"
       y1="154.58195"
       x1="6.101758"
       gradientUnits="userSpaceOnUse"
       id="linearGradient4109"
       xlink:href="#linearGradient4081"
       inkscape:collect="always" />
    <linearGradient
       y2="36.995476"
       x2="6.101758"
       y1="154.58195"
       x1="6.101758"
       gradientUnits="userSpaceOnUse"
       id="linearGradient4111"
       xlink:href="#linearGradient4081"
       inkscape:collect="always" />
    <linearGradient
       y2="36.995476"
       x2="6.101758"
       y1="154.58195"
       x1="6.101758"
       gradientUnits="userSpaceOnUse"
       id="linearGradient4113"
       xlink:href="#linearGradient4081"
       inkscape:collect="always" />
    <linearGradient
       y2="36.995476"
       x2="6.101758"
       y1="154.58195"
       x1="6.101758"
       gradientUnits="userSpaceOnUse"
       id="linearGradient4115"
       xlink:href="#linearGradient4081"
       inkscape:collect="always" />
    <linearGradient
       y2="36.995476"
       x2="6.101758"
       y1="154.58195"
       x1="6.101758"
       gradientUnits="userSpaceOnUse"
       id="linearGradient4117"
       xlink:href="#linearGradient4081"
       inkscape:collect="always" />
    <linearGradient
       y2="36.995476"
       x2="6.101758"
       y1="154.58195"
       x1="6.101758"
       gradientUnits="userSpaceOnUse"
       id="linearGradient4119"
       xlink:href="#linearGradient4081"
       inkscape:collect="always" />
    <linearGradient
       y2="36.995476"
       x2="6.101758"
       y1="154.58195"
       x1="6.101758"
       gradientUnits="userSpaceOnUse"
       id="linearGradient4121"
       xlink:href="#linearGradient4081"
       inkscape:collect="always" />
    <linearGradient
       y2="36.995476"
       x2="6.101758"
       y1="154.58195"
       x1="6.101758"
       gradientUnits="userSpaceOnUse"
       id="linearGradient4123"
       xlink:href="#linearGradient4081"
       inkscape:collect="always" />
    <linearGradient
       y2="36.995476"
       x2="6.101758"
       y1="154.58195"
       x1="6.101758"
       gradientUnits="userSpaceOnUse"
       id="linearGradient4125"
       xlink:href="#linearGradient4081"
       inkscape:collect="always" />
    <linearGradient
       y2="36.995476"
       x2="6.101758"
       y1="154.58195"
       x1="6.101758"
       gradientUnits="userSpaceOnUse"
       id="linearGradient4127"
       xlink:href="#linearGradient4081"
       inkscape:collect="always" />
    <linearGradient
       y2="36.995476"
       x2="6.101758"
       y1="154.58195"
       x1="6.101758"
       gradientUnits="userSpaceOnUse"
       id="linearGradient4129"
       xlink:href="#linearGradient4081"
       inkscape:collect="always" />
    <linearGradient
       gradientTransform="matrix(0.1317916,0,0,0.1317916,11.619896,-1.9882468)"
       y2="36.995476"
       x2="6.101758"
       y1="154.58195"
       x1="6.101758"
       gradientUnits="userSpaceOnUse"
       id="linearGradient4132"
       xlink:href="#linearGradient4081"
       inkscape:collect="always" />
    <linearGradient
       gradientTransform="matrix(0.1317916,0,0,0.1317916,11.619896,-1.9882468)"
       y2="36.995476"
       x2="6.101758"
       y1="154.58195"
       x1="6.101758"
       gradientUnits="userSpaceOnUse"
       id="linearGradient4141"
       xlink:href="#linearGradient4081"
       inkscape:collect="always" />
    <linearGradient
       gradientTransform="matrix(0.1317916,0,0,0.1317916,11.619896,-1.9882468)"
       y2="36.995476"
       x2="6.101758"
       y1="154.58195"
       x1="6.101758"
       gradientUnits="userSpaceOnUse"
       id="linearGradient4148"
       xlink:href="#linearGradient4081"
       inkscape:collect="always" />
    <linearGradient
       gradientTransform="matrix(0.1317916,0,0,0.1317916,11.619896,-1.9882468)"
       y2="36.995476"
       x2="6.101758"
       y1="154.58195"
       x1="6.101758"
       gradientUnits="userSpaceOnUse"
       id="linearGradient4158"
       xlink:href="#linearGradient4081"
       inkscape:collect="always" />
    <linearGradient
       y2="36.995476"
       x2="6.101758"
       y1="154.58195"
       x1="6.101758"
       gradientUnits="userSpaceOnUse"
       id="linearGradient4180"
       xlink:href="#linearGradient4081"
       inkscape:collect="always" />
    <linearGradient
       y2="36.995476"
       x2="6.101758"
       y1="154.58195"
       x1="6.101758"
       gradientTransform="matrix(0.1317916,0,0,0.1317916,11.619896,-1.9882468)"
       gradientUnits="userSpaceOnUse"
       id="linearGradient4182"
       xlink:href="#linearGradient4081"
       inkscape:collect="always" />
    <linearGradient
       y2="36.995476"
       x2="6.101758"
       y1="154.58195"
       x1="6.101758"
       gradientUnits="userSpaceOnUse"
       id="linearGradient4184"
       xlink:href="#linearGradient4081"
       inkscape:collect="always" />
    <linearGradient
       y2="36.995476"
       x2="6.101758"
       y1="154.58195"
       x1="6.101758"
       gradientTransform="matrix(0.1317916,0,0,0.1317916,11.619896,-1.9882468)"
       gradientUnits="userSpaceOnUse"
       id="linearGradient4186"
       xlink:href="#linearGradient4081"
       inkscape:collect="always" />
    <linearGradient
       y2="36.995476"
       x2="6.101758"
       y1="154.58195"
       x1="6.101758"
       gradientTransform="matrix(0.1256322,0,0,0.1256322,11.921746,-1.0005124)"
       gradientUnits="userSpaceOnUse"
       id="linearGradient2480"
       xlink:href="#linearGradient4081"
       inkscape:collect="always" />
    <linearGradient
       y2="36.995476"
       x2="6.101758"
       y1="154.58195"
       x1="6.101758"
       gradientTransform="matrix(0.1256322,0,0,0.1256322,11.921746,-1.0005124)"
       gradientUnits="userSpaceOnUse"
       id="linearGradient2483"
       xlink:href="#linearGradient4081"
       inkscape:collect="always" />
    <linearGradient
       y2="36.995476"
       x2="6.101758"
       y1="154.58195"
       x1="6.101758"
       gradientTransform="matrix(0.1256322,0,0,0.1256322,11.921746,-1.0005124)"
       gradientUnits="userSpaceOnUse"
       id="linearGradient2489"
       xlink:href="#linearGradient4081"
       inkscape:collect="always" />
    <linearGradient
       y2="36.995476"
       x2="6.101758"
       y1="154.58195"
       x1="6.101758"
       gradientTransform="matrix(0.1256322,0,0,0.1256322,11.921746,-1.0005124)"
       gradientUnits="userSpaceOnUse"
       id="linearGradient2495"
       xlink:href="#linearGradient4081"
       inkscape:collect="always" />
    <linearGradient
       y2="36.995476"
       x2="6.101758"
       y1="154.58195"
       x1="6.101758"
       gradientTransform="matrix(0.1256322,0,0,0.1256322,11.921746,-1.0005124)"
       gradientUnits="userSpaceOnUse"
       id="linearGradient2498"
       xlink:href="#linearGradient4081"
       inkscape:collect="always" />
    <linearGradient
       y2="36.995476"
       x2="6.101758"
       y1="154.58195"
       x1="6.101758"
       gradientTransform="matrix(0.1256322,0,0,0.1256322,11.921746,-1.0005124)"
       gradientUnits="userSpaceOnUse"
       id="linearGradient2501"
       xlink:href="#linearGradient4081"
       inkscape:collect="always" />
    <linearGradient
       y2="36.995476"
       x2="6.101758"
       y1="154.58195"
       x1="6.101758"
       gradientTransform="matrix(0.1256322,0,0,0.1256322,11.921746,-1.0005124)"
       gradientUnits="userSpaceOnUse"
       id="linearGradient2504"
       xlink:href="#linearGradient4081"
       inkscape:collect="always" />
    <linearGradient
       y2="36.995476"
       x2="6.101758"
       y1="154.58195"
       x1="6.101758"
       gradientUnits="userSpaceOnUse"
       id="linearGradient2506"
       xlink:href="#linearGradient4081"
       inkscape:collect="always" />
    <linearGradient
       y2="36.995476"
       x2="6.101758"
       y1="154.58195"
       x1="6.101758"
       gradientTransform="matrix(0.1317916,0,0,0.1317916,11.619896,-1.9882468)"
       gradientUnits="userSpaceOnUse"
       id="linearGradient2508"
       xlink:href="#linearGradient4081"
       inkscape:collect="always" />
    <linearGradient
       y2="36.995476"
       x2="6.101758"
       y1="154.58195"
       x1="6.101758"
       gradientTransform="matrix(0.1317916,0,0,0.1317916,11.619896,-1.9882468)"
       gradientUnits="userSpaceOnUse"
       id="linearGradient2510"
       xlink:href="#linearGradient4081"
       inkscape:collect="always" />
    <clipPath
       id="clipPath4974"
       clipPathUnits="userSpaceOnUse">
      <path
         inkscape:connector-curvature="0"
         style="fill:#ffffff;fill-opacity:1;stroke:none"
         d="M 16.625,2 C 15.93281,2.046173 15.13978,2.350316 14.5,2.875 13.716105,3.517873 13.079371,5.1522168 13.25,6.0625 13.337976,6.531842 13.692147,7.1029241 14.03125,7.28125 14.662734,7.613335 15.813682,7.0624791 16.875,5.9375 18.021489,4.722239 18.547995,3.383178 18.15625,2.625 17.915497,2.159052 17.31719,1.953827 16.625,2 Z M 10.96875,2.71875 C 10.005789,2.719616 9.496306,3.3967078 9.5,4.6875 c 0.00253,0.88392 0.31322,1.6791318 0.71875,1.875 0.301512,0.145631 0.309051,0.1320361 0.6875,0 C 11.533114,6.343793 12.122053,4.8839409 12,3.90625 11.900109,3.106091 11.556193,2.7182209 10.96875,2.71875 Z m -3.8125,1.3125 C 6.976067,4.0573035 6.795347,4.173262 6.625,4.34375 6.281636,4.687396 6.277056,4.8747068 6.28125,5.53125 6.286196,6.305553 6.475145,6.7277249 7,7.28125 7.392601,7.695296 7.675716,7.7200481 8.03125,7.34375 8.416388,6.936117 8.535971,6.296057 8.40625,5.59375 8.208416,4.5226825 7.696799,3.9530895 7.15625,4.03125 Z M 4.46875,6.375 C 4.281799,6.4054104 4.1133,6.5115553 3.9375,6.6875 3.476154,7.14923 3.798831,8.4188978 4.53125,9.0625 5.405425,9.830669 6.111327,9.1273309 5.8125,7.78125 5.599846,6.8233425 5.029603,6.2837687 4.46875,6.375 Z M 12.5,8.0625 C 11.88094,8.0518483 11.187196,8.1034691 10.46875,8.25 8.61799,8.627471 7.13709,9.3254488 6.1875,10.28125 5.640611,10.831715 5.327697,11.341306 5.0625,12.125 c -0.641919,1.896963 0.546896,4.595678 2.8125,6.4375 0.844088,0.686203 1.359152,0.993313 2.21875,1.28125 0.445736,0.149308 0.799163,0.183992 1.625,0.15625 0.946716,-0.03181 1.139252,-0.07408 1.75,-0.375 0.895036,-0.440989 1.909553,-1.461035 2.34375,-2.34375 0.264885,-0.5385 0.307321,-0.768628 0.28125,-1.21875 -0.04452,-0.768578 -0.342658,-0.977756 -1.3125,-0.96875 -1.38452,0.01285 -1.965756,0.333932 -2.25,1.3125 -0.21469,0.739118 -0.452038,1 -0.9375,1 -0.769368,0 -1.5625,-0.611791 -1.5625,-1.25 0,-0.443994 0.715313,-1.10577 2.5,-2.3125 2.514116,-1.69994 3.378489,-2.734111 3.25,-3.875 C 15.64852,8.7901993 14.35718,8.0944552 12.5,8.0625 Z"
         id="path4976" />
    </clipPath>
    <clipPath
       id="clipPath4995"
       clipPathUnits="userSpaceOnUse">
      <path
         inkscape:connector-curvature="0"
         id="path4997"
         d="M 30,0 V 22 H 52 V 0 Z M 46.625,2 C 47.31719,1.953827 47.915497,2.159052 48.15625,2.625 48.547995,3.383178 48.021489,4.722239 46.875,5.9375 45.813682,7.0624791 44.662734,7.613335 44.03125,7.28125 43.692147,7.1029241 43.337976,6.531842 43.25,6.0625 43.079371,5.1522168 43.716105,3.517873 44.5,2.875 45.13978,2.350316 45.93281,2.046173 46.625,2 Z m -5.65625,0.71875 c 0.587443,-5.291e-4 0.931359,0.387341 1.03125,1.1875 0.122053,0.9776909 -0.466886,2.437543 -1.09375,2.65625 -0.378449,0.1320361 -0.385988,0.145631 -0.6875,0 C 39.81322,6.3666318 39.502528,5.57142 39.5,4.6875 39.496306,3.3967078 40.005789,2.719616 40.96875,2.71875 Z m -3.8125,1.3125 c 0.540549,-0.078161 1.052166,0.4914325 1.25,1.5625 0.129721,0.702307 0.01014,1.342367 -0.375,1.75 C 37.675716,7.7200481 37.392601,7.695296 37,7.28125 36.475145,6.7277249 36.286196,6.305553 36.28125,5.53125 36.277056,4.8747068 36.281636,4.687396 36.625,4.34375 36.795347,4.173262 36.976067,4.0573035 37.15625,4.03125 Z M 34.46875,6.375 C 35.029603,6.2837687 35.599846,6.8233425 35.8125,7.78125 36.111327,9.1273309 35.405425,9.830669 34.53125,9.0625 33.798831,8.4188978 33.476154,7.14923 33.9375,6.6875 34.1133,6.5115553 34.281799,6.4054104 34.46875,6.375 Z M 42.5,8.0625 c 1.85718,0.031955 3.14852,0.7276993 3.28125,1.90625 0.128489,1.140889 -0.735884,2.17506 -3.25,3.875 -1.784687,1.20673 -2.5,1.868506 -2.5,2.3125 0,0.638209 0.793132,1.25 1.5625,1.25 0.485462,0 0.72281,-0.260882 0.9375,-1 0.284244,-0.978568 0.86548,-1.299646 2.25,-1.3125 0.969842,-0.009 1.267977,0.200172 1.3125,0.96875 0.02607,0.450122 -0.01637,0.68025 -0.28125,1.21875 -0.434197,0.882715 -1.448714,1.902761 -2.34375,2.34375 -0.610748,0.300916 -0.803284,0.343192 -1.75,0.375 -0.825837,0.02774 -1.179264,-0.0069 -1.625,-0.15625 C 39.234152,19.555813 38.719088,19.248703 37.875,18.5625 35.609396,16.720678 34.420581,14.021963 35.0625,12.125 35.327697,11.341306 35.640611,10.831715 36.1875,10.28125 37.13709,9.3254488 38.61799,8.627471 40.46875,8.25 41.187196,8.1034691 41.88094,8.0518483 42.5,8.0625 Z"
         style="display:inline;fill:#ffffff;fill-opacity:1;fill-rule:nonzero;stroke:none" />
    </clipPath>
    <inkscape:perspective
       sodipodi:type="inkscape:persp3d"
       inkscape:vp_x="0 : 0.5 : 1"
       inkscape:vp_y="0 : 1000 : 0"
       inkscape:vp_z="1 : 0.5 : 1"
       inkscape:persp3d-origin="0.5 : 0.33333333 : 1"
       id="perspective4017" />
    <linearGradient
       gradientUnits="userSpaceOnUse"
       y2="18.011395"
       x2="10.761708"
       y1="3.9999998"
       x1="10.761708"
       id="SpecificGradient">
      <stop
         id="stop3292"
         offset="0"
         style="stop-color:#a50000;stop-opacity:1;" />
      <stop
         id="stop3294"
         offset="1"
         style="stop-color:#e73800;stop-opacity:1;" />
    </linearGradient>
    <linearGradient
       gradientUnits="userSpaceOnUse"
       y2="18.974037"
       x2="10.710332"
       y1="1.9963325"
       x1="10.710332"
       gradientTransform="matrix(0.9984539,0,0,0.9984539,-0.0459776,0.05767558)"
       id="StandardGradient">
      <stop
         id="stop3277"
         offset="0"
         style="stop-color:#000000;stop-opacity:0.86274511;" />
      <stop
         id="stop3279"
         offset="1"
         style="stop-color:#000000;stop-opacity:0.47058824;" />
    </linearGradient>
    <linearGradient
       y2="5.9912982"
       x2="7"
       y1="15.991298"
       x1="7"
       gradientTransform="matrix(1,0,0,-1,1,22.991298)"
       gradientUnits="userSpaceOnUse"
       id="linearGradient3715"
       xlink:href="#StandardGradient"
       inkscape:collect="always" />
    <linearGradient
       y2="5.9912982"
       x2="7"
       y1="15.991298"
       x1="7"
       gradientTransform="matrix(1,0,0,-1,1,21.991298)"
       gradientUnits="userSpaceOnUse"
       id="linearGradient3719"
       xlink:href="#StandardGradient"
       inkscape:collect="always" />
    <linearGradient
       y2="5.9912982"
       x2="7"
       y1="15.991298"
       x1="7"
       gradientTransform="matrix(1,0,0,-1,-29,21.991298)"
       gradientUnits="userSpaceOnUse"
       id="linearGradient3724"
       xlink:href="#StandardGradient"
       inkscape:collect="always" />
    <clipPath
       id="clipPath3729"
       clipPathUnits="userSpaceOnUse">
      <path
         inkscape:connector-curvature="0"
         id="path3731"
         d="M -30,0 V 22 H -8 V 0 Z m 7.25,6 c 0.123689,8.56e-5 0.262937,0.058056 0.375,0.15625 0.224127,0.19639 0.376453,0.57679 0.375,0.96875 v 1.75 4.25 1.75 c 0.0032,0.335861 -0.108495,0.66414 -0.28125,0.875 -0.129566,0.158145 -0.305534,0.249975 -0.46875,0.25 -0.0544,8e-6 -0.07095,-0.01227 -0.125,-0.03125 -0.07054,-0.02768 -0.156859,-0.06679 -0.21875,-0.125 L -25.0625,14.125 h -1.96875 c -0.542687,0 -0.96875,-0.431061 -0.96875,-1 v -4.25 c 0,-0.568939 0.426063,-1.03125 0.96875,-1.03125 h 2 l 1.9375,-1.6875 C -22.981818,6.0577135 -22.873689,5.9999144 -22.75,6 Z"
         style="display:inline;fill:#ff00ff;fill-opacity:1;stroke:none" />
    </clipPath>
  </defs>
  <metadata
     id="metadata7">
    <rdf:RDF>
      <cc:Work
         rdf:about="">
        <dc:format>image/svg+xml</dc:format>
        <dc:type
           rdf:resource="http://purl.org/dc/dcmitype/StillImage" />
        <dc:title></dc:title>
      </cc:Work>
    </rdf:RDF>
  </metadata>
  <g
     transform="matrix(1.066667,0,0,1.066667,5,56.866657)"
     style="display:inline"
     id="layer1"
     inkscape:groupmode="layer"
     inkscape:label="Icon">
    <g
       id="g4567"
       transform="matrix(5.0390609,0,0,5.0390609,0,-129.24995)">
      <g
         transform="translate(0,10)"
         id="g4546">
        <path
           inkscape:connector-curvature="0"
           id="path3085"
           transform="translate(0,6)"
           d="M 8,0 7,3 H 9 Z M 2.34375,2.34375 3.75,5.15625 5.15625,3.75 Z m 11.3125,0 L 10.84375,3.75 12.25,5.15625 Z M 8,4 C 5.790861,4 4,5.790861 4,8 c 0,2.209139 1.790861,4 4,4 2.209139,0 4,-1.790861 4,-4 C 12,5.790861 10.209139,4 8,4 Z m 0,1.5 c 1.3807119,0 2.5,1.1192881 2.5,2.5 0,1.3807119 -1.1192881,2.5 -2.5,2.5 C 6.6192881,10.5 5.5,9.3807119 5.5,8 5.5,6.6192881 6.6192881,5.5 8,5.5 Z M 3,7 0,8 3,9 Z M 13,7 V 9 L 16,8 Z M 3.75,10.84375 2.34375,13.65625 5.15625,12.25 Z m 8.5,0 -1.40625,1.40625 2.8125,1.40625 z M 7,13 8,16 9,13 Z"
           style="color:#000000;display:inline;overflow:visible;visibility:visible;opacity:1;fill:#bebebe;fill-opacity:1;fill-rule:nonzero;stroke:none;stroke-width:1.5;marker:none;enable-background:accumulate" />
      </g>
      <g
         transform="translate(-3.5e-7,-10)"
         id="g4555">
        <path
           inkscape:connector-curvature="0"
           style="color:#000000;display:inline;overflow:visible;visibility:visible;opacity:0.35;fill:#000000;fill-opacity:1;fill-rule:nonzero;stroke:none;stroke-width:1.5;marker:none;enable-background:accumulate"
           d="m 8,30 c -2.209139,0 -4,1.790861 -4,4 0,2.209139 1.790861,4 4,4 2.209139,0 4,-1.790861 4,-4 0,-2.209139 -1.790861,-4 -4,-4 z m 0,2 c 1.1045695,0 2,0.89543 2,2 0,1.104569 -0.8954305,2 -2,2 -1.1045695,0 -2,-0.895431 -2,-2 0,-1.10457 0.8954305,-2 2,-2 z"
           id="path3102" />
        <path
           style="fill:#808080;stroke:none"
           d="m 6,29 h 4 L 8,26 Z"
           id="path3104"
           inkscape:connector-curvature="0"
           sodipodi:nodetypes="cccc"
           inkscape:transform-center-y="-6.5" />
        <path
           sodipodi:nodetypes="cccc"
           inkscape:connector-curvature="0"
           id="path3106"
           d="m 11.330127,29.767949 2,3.464102 L 14.928204,30 Z"
           style="fill:#808080;stroke:none"
           inkscape:transform-center-x="-5.1291655"
           inkscape:transform-center-y="-2.4999999" />
        <path
           inkscape:transform-center-y="2.5"
           inkscape:transform-center-x="-5.129165"
           style="fill:#808080;stroke:none"
           d="m 13.330127,34.767949 -2,3.464102 L 14.928203,38 Z"
           id="path3108"
           inkscape:connector-curvature="0"
           sodipodi:nodetypes="cccc" />
        <path
           sodipodi:nodetypes="cccc"
           inkscape:connector-curvature="0"
           id="path3110"
           d="M 10,39 H 5.9999998 l 2.0000001,3 z"
           style="fill:#808080;stroke:none"
           inkscape:transform-center-y="6.5" />
        <path
           inkscape:transform-center-y="2.5"
           style="fill:#808080;stroke:none"
           d="M 4.6698729,38.232051 2.6698728,34.767949 1.0717967,38 Z"
           id="path3112"
           inkscape:connector-curvature="0"
           sodipodi:nodetypes="cccc"
           inkscape:transform-center-x="5.1291651" />
        <path
           inkscape:transform-center-x="5.129165"
           sodipodi:nodetypes="cccc"
           inkscape:connector-curvature="0"
           id="path3114"
           d="M 2.6698727,33.232051 4.669873,29.767949 1.0717967,30 Z"
           style="fill:#808080;stroke:none"
           inkscape:transform-center-y="-2.5" />
      </g>
    </g>
  </g>
</svg>
